<svg width="16" height="17" viewBox="0 0 16 17" fill="none" xmlns="http://www.w3.org/2000/svg">
<rect x="2" y="3" width="2" height="11" fill="#BD434A"/>
<path d="M9.45626 6.28189L9.45829 6.28399L6.07781 9.79969L4.6636 8.32891L7.5 5.37906L7.5 3H9.5L9.5 6.23641L9.45626 6.28189Z" fill="#BD434A"/>
<path d="M9.45625 10.7181L9.45827 10.716L5.91421 7.02943L4.5 8.50021L7.49998 11.6209V14.0001H9.49998L9.49998 10.7636L9.45625 10.7181Z" fill="#BD434A"/>
<path d="M10 10H12H14L12 7L10 10Z" fill="#BD434A"/>
<path d="M13.5 7C13.2242 7.00019 13.0004 7.22399 13.0004 7.5C13.0004 7.77629 13.2246 8.00021 13.5007 8C13.7765 7.99979 14.0004 7.77599 14.0004 7.5C14.0004 7.22372 13.7761 6.99981 13.5 7Z" fill="#BD434A"/>
</svg>
