<svg width="16" height="17" viewBox="0 0 16 17" fill="none" xmlns="http://www.w3.org/2000/svg">
<path d="M13.9969 7L11.4985 7L11.5 8L13.9983 8L13.9969 7Z" fill="#5581C0"/>
<path d="M10.0014 9L12.4998 9L12.4982 10L10 10L10.0014 9Z" fill="#5581C0"/>
<path d="M10.9993 7.49965C10.9991 7.22384 10.7754 7 10.4996 7C10.2235 7 9.99979 7.22428 10 7.50037C10.0002 7.77617 10.2238 8 10.4996 8C10.7757 8 10.9995 7.77572 10.9993 7.49965Z" fill="#5581C0"/>
<path d="M13.0007 9.49965C13.0009 9.22385 13.2246 9 13.5004 9C13.7765 9 14.0002 9.22429 14 9.50038C13.9998 9.77617 13.7762 10 13.5004 10C13.2243 10 13.0005 9.77573 13.0007 9.49965Z" fill="#5581C0"/>
<rect x="2" y="3" width="2" height="11" fill="#5581C0"/>
<path d="M9.45626 6.28189L9.45829 6.28399L6.07781 9.79969L4.6636 8.32891L7.5 5.37906L7.5 3H9.5L9.5 6.23641L9.45626 6.28189Z" fill="#5581C0"/>
<path d="M9.45625 10.7181L9.45827 10.716L5.91421 7.02943L4.5 8.50021L7.49998 11.6209V14.0001H9.49998L9.49998 10.7636L9.45625 10.7181Z" fill="#5581C0"/>
</svg>
