<svg width="128" height="128" viewBox="0 0 128 128" fill="none" xmlns="http://www.w3.org/2000/svg">
<rect width="128" height="128" rx="64" fill="#F4F4F4"/>
<path d="M83.0545 98.9116C77.391 101.972 70.9026 103.71 64.0067 103.71C41.9116 103.71 24 85.8664 24 63.8551C24 41.8437 41.9116 24 64.0067 24C80.4274 24 94.5375 33.8557 100.702 47.953C101.404 49.5578 101.754 50.3603 101.324 51.0154C100.893 51.6705 99.969 51.6705 98.1207 51.6705H90.4771C86.0272 51.6705 83.8022 51.6705 82.0427 50.8492C80.2833 50.0279 78.5485 47.953 75.079 43.8031C64.9756 31.7187 52.5899 25.8975 44.614 30.4848C34.7153 36.1781 35.3573 55.7475 46.048 74.194C56.6407 92.4715 73.1244 102.789 83.0545 97.438V84.4559C83.0545 73.5586 91.9206 64.7246 102.858 64.7246C103.488 64.7246 104 65.2343 104 65.863V99.6522C104 101.702 104 102.727 103.361 103.363C102.722 104 101.693 104 99.6364 104H85.2046C84.0172 104 83.0545 103.041 83.0545 101.858V98.9116Z" fill="#ED522C"/>
</svg>
