<svg width="550" height="550" viewBox="0 0 550 550" fill="none" xmlns="http://www.w3.org/2000/svg">
<path d="M382.182 472.251C350.324 489.542 313.827 499.362 275.037 499.362C150.753 499.362 50 398.545 50 274.181C50 149.817 150.753 49 275.037 49C367.404 49 446.774 104.685 481.448 184.334C485.395 193.402 487.369 197.936 484.946 201.637C482.523 205.338 477.325 205.338 466.929 205.338H423.934C398.903 205.338 386.387 205.338 376.49 200.698C366.594 196.058 356.835 184.334 337.319 160.888C280.488 92.6104 210.818 59.7206 165.954 85.6393C110.274 117.807 113.885 228.373 174.02 332.596C233.604 435.864 326.325 494.158 382.182 463.925V390.576C382.182 329.006 432.054 279.094 493.574 279.094C497.123 279.094 500 281.974 500 285.526V476.435C500 488.015 500 493.805 496.405 497.402C492.811 501 487.025 501 475.455 501H394.276C387.597 501 382.182 495.581 382.182 488.896V472.251Z" fill="#F4F4F4"/>
</svg>
